<svg id="Слой_1" data-name="Слой 1" xmlns="http://www.w3.org/2000/svg" viewBox="0 0 45 21.43"><defs><style>.cls-1{fill:#333;}.cls-2{fill:#ff4d4d;}</style></defs><title>d-room_logo</title><path class="cls-1" d="M9,21.43H0V0H9a12.05,12.05,0,0,1,8.37,2.89,10,10,0,0,1,3.23,7.81,10,10,0,0,1-3.23,7.82A12,12,0,0,1,9,21.43Zm0-4.82a5.68,5.68,0,0,0,4.34-1.72,5.92,5.92,0,0,0,1.61-4.19A6,6,0,0,0,13.4,6.46,5.69,5.69,0,0,0,9,4.82H5.53V16.61Z"/><path class="cls-1" d="M27.15,3.65H26V.1h1.13V.53a1.6,1.6,0,0,1,.49-.38A1.45,1.45,0,0,1,28.26,0V1.09a1.2,1.2,0,0,0-.28,0,1.45,1.45,0,0,0-.48.09.73.73,0,0,0-.35.24Z"/><path class="cls-1" d="M30.48,3.74a1.91,1.91,0,0,1-1.41-.54,1.87,1.87,0,0,1-.53-1.33A1.83,1.83,0,0,1,29.07.55a2.12,2.12,0,0,1,2.83,0,1.83,1.83,0,0,1,.53,1.32A1.87,1.87,0,0,1,31.9,3.2,1.91,1.91,0,0,1,30.48,3.74Zm-.56-1.25a.66.66,0,0,0,.56.25.7.7,0,0,0,.57-.25.91.91,0,0,0,.21-.62.9.9,0,0,0-.21-.61A.7.7,0,0,0,30.48,1a.66.66,0,0,0-.56.25.9.9,0,0,0-.21.61A.91.91,0,0,0,29.92,2.49Z"/><path class="cls-1" d="M34.72,3.74a1.87,1.87,0,0,1-1.4-.54,1.83,1.83,0,0,1-.53-1.33A1.79,1.79,0,0,1,33.32.55,1.87,1.87,0,0,1,34.72,0a1.9,1.9,0,0,1,1.42.54,1.83,1.83,0,0,1,.53,1.32,1.87,1.87,0,0,1-.53,1.33A1.9,1.9,0,0,1,34.72,3.74Zm-.56-1.25a.68.68,0,0,0,.56.25.7.7,0,0,0,.58-.25.91.91,0,0,0,.21-.62.9.9,0,0,0-.21-.61A.7.7,0,0,0,34.72,1a.68.68,0,0,0-.56.25,1,1,0,0,0-.2.61A1,1,0,0,0,34.16,2.49Z"/><path class="cls-1" d="M42.88,3.65H41.75V1.49A.42.42,0,0,0,41.28,1a.76.76,0,0,0-.64.35V3.65H39.51V1.49A.42.42,0,0,0,39,1a.8.8,0,0,0-.64.35V3.65H37.27V.1H38.4V.53a1.33,1.33,0,0,1,.47-.35,1.4,1.4,0,0,1,.7-.17.94.94,0,0,1,1,.63A1.39,1.39,0,0,1,41.09.2,1.39,1.39,0,0,1,41.81,0a1.1,1.1,0,0,1,.79.27,1,1,0,0,1,.28.8Z"/><path class="cls-1" d="M30.85,12.5H29.63L29,10.29l-.67,2.21H27.07L26,8.94h1.16l.57,2.18.7-2.18h1l.7,2.18.57-2.18H31.9Z"/><path class="cls-1" d="M34,12.58a1.87,1.87,0,0,1-1.4-.54A1.81,1.81,0,0,1,32,10.71a1.79,1.79,0,0,1,.53-1.32A1.87,1.87,0,0,1,34,8.85a1.91,1.91,0,0,1,1.42.54,1.83,1.83,0,0,1,.53,1.32A1.85,1.85,0,0,1,35.39,12,1.91,1.91,0,0,1,34,12.58Zm-.56-1.24a.68.68,0,0,0,.56.24.72.72,0,0,0,.57-.24,1,1,0,0,0,.21-.63.9.9,0,0,0-.21-.61A.7.7,0,0,0,34,9.85a.66.66,0,0,0-.56.25.9.9,0,0,0-.2.61A1,1,0,0,0,33.41,11.34Z"/><path class="cls-1" d="M37.65,12.5H36.52V8.94h1.13v.43A1.44,1.44,0,0,1,38.14,9a1.33,1.33,0,0,1,.62-.16V9.93a1.27,1.27,0,0,0-.28,0A1.4,1.4,0,0,0,38,10a.8.8,0,0,0-.35.24Z"/><path class="cls-1" d="M42.93,12.5h-1.4l-.78-1.26-.34.4v.86H39.28V7.58h1.13v2.78L41.5,8.94h1.37l-1.32,1.62Z"/><polygon class="cls-2" points="26.91 9.82 10.89 9.82 10.89 11.29 19.94 11.29 24.49 11.29 26.91 11.29 35.95 11.29 40.51 11.29 42.93 11.29 42.93 9.82 26.91 9.82"/><path class="cls-1" d="M31.63,21.34H30.5V19.17a.42.42,0,0,0-.47-.48.78.78,0,0,0-.64.35v2.3H28.26V19.17a.42.42,0,0,0-.48-.48.82.82,0,0,0-.63.35v2.3H26V17.78h1.13v.43a1.33,1.33,0,0,1,.47-.35,1.51,1.51,0,0,1,.7-.17,1,1,0,0,1,1,.63,1.32,1.32,0,0,1,.51-.44,1.39,1.39,0,0,1,.72-.19,1.1,1.1,0,0,1,.79.27,1.05,1.05,0,0,1,.28.8Z"/><path class="cls-1" d="M34.17,21.43a1.88,1.88,0,0,1-1.41-.55,1.81,1.81,0,0,1-.53-1.33,1.79,1.79,0,0,1,.53-1.32,2.11,2.11,0,0,1,2.82,0,1.83,1.83,0,0,1,.53,1.32,1.85,1.85,0,0,1-.53,1.33A1.9,1.9,0,0,1,34.17,21.43Zm-.57-1.25a.7.7,0,0,0,.57.24.72.72,0,0,0,.57-.24,1,1,0,0,0,.21-.63.9.9,0,0,0-.21-.61.7.7,0,0,0-.57-.25.68.68,0,0,0-.57.25,1,1,0,0,0-.2.61A1,1,0,0,0,33.6,20.18Z"/><path class="cls-1" d="M37.84,21.34H36.71V17.78h1.13v.43a1.52,1.52,0,0,1,.5-.37,1.26,1.26,0,0,1,.61-.16v1.09a1.2,1.2,0,0,0-.28,0,1.25,1.25,0,0,0-.48.1.72.72,0,0,0-.35.23Z"/><path class="cls-1" d="M41.18,21.43a1.93,1.93,0,0,1-1.39-.52,1.76,1.76,0,0,1-.56-1.36,1.8,1.8,0,0,1,.54-1.32,1.82,1.82,0,0,1,1.36-.54,1.73,1.73,0,0,1,1.31.54A2,2,0,0,1,43,19.67v.25H40.41a.75.75,0,0,0,.29.44.92.92,0,0,0,.6.19,1.54,1.54,0,0,0,.48-.09.93.93,0,0,0,.41-.21l.48.7a1.6,1.6,0,0,1-.66.35A2.62,2.62,0,0,1,41.18,21.43Zm.68-2.25a.74.74,0,0,0-.2-.43.72.72,0,0,0-.53-.18.69.69,0,0,0-.51.18.81.81,0,0,0-.22.43Z"/><path class="cls-1" d="M44.57,21.22a.67.67,0,0,1-.49.21.64.64,0,0,1-.48-.21.67.67,0,0,1-.21-.49.72.72,0,0,1,.69-.69.67.67,0,0,1,.49.21.63.63,0,0,1,.2.48A.66.66,0,0,1,44.57,21.22Z"/></svg>