<?xml version="1.0" encoding="utf-8"?>
<!-- Generator: Adobe Illustrator 22.0.1, SVG Export Plug-In . SVG Version: 6.00 Build 0)  -->
<svg version="1.1" id="droom-01" xmlns="http://www.w3.org/2000/svg" xmlns:xlink="http://www.w3.org/1999/xlink" x="0px" y="0px"
	 viewBox="0 0 200 96.5" style="enable-background:new 0 0 200 96.5;" xml:space="preserve">
<style type="text/css">
	.st0{fill:#333333;}
	.st1{fill:#FF4D4D;}
</style>
<g id="Group_1" transform="translate(109.469 33.256)">
	<path id="Path_13" class="st0" d="M16.6,24.5l-3.2-11.6l0,0l-2.8,11.6H5.5L0,6.9h5.1l3.2,12l0,0l2.8-12h4.6l2.8,12l0,0l3.2-12h5.1
		l-5.5,17.6H16.6z"/>
	<path id="Path_14" class="st0" d="M29.6,11.5c0.5-0.9,0.9-2.3,1.8-2.8c0.8-0.8,1.7-1.4,2.8-1.8c1.2-0.4,2.4-0.6,3.7-0.5
		c1.3-0.1,2.5,0.1,3.7,0.5c1,0.5,2,1.1,2.8,1.8c0.8,0.8,1.4,1.7,1.8,2.8c0.4,1.2,0.6,2.4,0.5,3.7c0.1,1.3-0.1,2.5-0.5,3.7
		c-0.5,0.9-0.9,2.3-1.8,2.8c-0.8,0.8-1.7,1.4-2.8,1.8c-1.2,0.4-2.4,0.6-3.7,0.5c-1.3,0.1-2.5-0.1-3.7-0.5c-1-0.5-2-1.1-2.8-1.8
		c-0.8-0.8-1.4-1.7-1.8-2.8c-0.4-1.2-0.6-2.4-0.5-3.7C28.6,14.3,29.1,12.9,29.6,11.5z M33.7,17.5c0.1,0.7,0.4,1.3,0.9,1.8l1.4,1.4
		c0.5,0.4,1.2,0.5,1.8,0.5c0.7,0.1,1.3-0.1,1.8-0.5l1.4-1.4c0.5-0.5,0.5-0.9,0.9-1.8v-3.7c-0.1-0.7-0.4-1.3-0.9-1.8l-1.4-1.4
		c-0.5-0.4-1.2-0.5-1.8-0.5c-0.7-0.1-1.3,0.1-1.8,0.5L34.6,12c-0.5,0-0.9,0.9-0.9,1.4V17.5L33.7,17.5z"/>
	<path id="Path_15" class="st0" d="M54.5,6.9v3.2l0,0c0-0.5,0.5-0.9,0.9-1.4l1.4-1.4c0.5-0.5,0.9-0.5,1.4-0.9C58.7,6.5,59.1,6,60,6
		H61v4.6h-1.8c-0.8-0.1-1.6,0-2.3,0.5l-1.4,1.4c-0.5,0.5-0.5,0.9-0.9,1.8c-0.2,0.8-0.4,1.5-0.5,2.3v7.9h-4.6V6.9H54.5z"/>
	<path id="Path_16" class="st0" d="M68.4,0v12.9l6-6.5h5.5l-6.5,6.5L80.8,24h-5.5l-4.6-7.9L68.8,18v6h-4.6V0H68.4z"/>
</g>
<g id="Group_2" transform="translate(112.702 77.598)">
	<path id="Path_17" class="st0" d="M3.2,0.9v2.3l0,0c0.5-0.9,1.4-1.4,2.3-2.3C6.5,0.3,7.6,0,8.8,0C9.9-0.1,11,0.1,12,0.5
		c0.9,0.5,1.4,1.4,2.3,2.3c0.5-0.9,1.4-1.5,2.3-1.8c1-0.6,2.1-0.9,3.2-0.9c0.9-0.1,1.9,0.1,2.8,0.5c0.7,0,1.4,0.4,1.8,0.9
		c0.6,0.5,1,1.2,1.4,1.8c0.4,0.9,0.5,1.8,0.5,2.8v11.5h-4.6v-12c0.1-0.5-0.1-1-0.5-1.4c0-0.5-0.5-0.5-0.9-0.9
		c-0.5,0-0.9-0.5-1.4-0.5c-0.7-0.1-1.3,0.1-1.8,0.5c-0.5,0.5-0.9,0.5-0.9,0.9c-0.4,0.4-0.5,0.9-0.5,1.4v11.1h-4.6V5.5
		c0.1-0.5-0.1-1-0.5-1.4c0-0.5-0.4-0.9-0.9-0.9C9.2,2.8,8.8,2.8,7.9,2.8H6.9C6.6,2.8,6.3,3,6,3.2C5.6,3.6,5.3,4.1,5.1,4.6
		C4.7,5.3,4.5,6.1,4.6,6.9v10.2H0V0.9H3.2z"/>
	<path id="Path_18" class="st0" d="M29.1,6c0.5-0.9,0.9-2.3,1.8-2.8c0.8-0.8,1.7-1.4,2.8-1.8c1.2-0.4,2.4-0.6,3.7-0.5
		c1.3-0.1,2.5,0.1,3.7,0.5c1,0.5,2,1.1,2.8,1.8C44.7,4,45.3,5,45.7,6c0.4,1.2,0.6,2.4,0.5,3.7c0.1,1.3-0.1,2.5-0.5,3.7
		c-0.5,0.9-0.9,2.3-1.8,2.8c-0.8,0.8-1.7,1.4-2.8,1.8c-1.2,0.4-2.4,0.6-3.7,0.5c-1.3,0.1-2.5-0.1-3.7-0.5c-1-0.5-2-1.1-2.8-1.8
		c-0.8-0.8-1.4-1.7-1.8-2.8c-0.4-1.2-0.6-2.4-0.5-3.7C28.5,8.5,28.7,7.2,29.1,6z M33.7,12c0.1,0.7,0.4,1.3,0.9,1.8l1.4,1.4
		c0.5,0.4,1.2,0.5,1.8,0.5c0.9,0,1.4,0,1.8-0.5l1.4-1.4c0.5-0.5,0.5-0.9,0.9-1.8V8.3c-0.1-0.7-0.4-1.3-0.9-1.8l-1.4-1.4
		c-0.5-0.4-1.2-0.5-1.8-0.5c-0.9,0-1.4,0-1.8,0.5l-1.4,1.4c-0.5,0.5-0.5,0.9-0.9,1.8v1.8C33.3,10.6,33.3,11.1,33.7,12L33.7,12z"/>
	<path id="Path_19" class="st0" d="M54.5,0.9v3.2l0,0c0-0.5,0.5-0.9,0.9-1.4l1.4-1.4c0.5-0.5,0.9-0.5,1.4-0.9C58.7,0.5,59.1,0,60,0
		H61v4.6h-1.8c-0.8-0.1-1.6,0-2.3,0.5l-1.4,1.4C55,6.9,55,7.4,54.5,8.3c-0.2,0.8-0.4,1.5-0.5,2.3v7.9h-4.6V0.9H54.5z"/>
	<path id="Path_20" class="st0" d="M67.4,14.3c0.9,0.9,1.8,0.9,3.2,0.9c0.9,0,1.7-0.3,2.3-0.9c0.9-0.5,0.9-0.9,1.4-1.4h4.2
		c-0.4,1.9-1.6,3.6-3.2,4.6c-1.5,0.9-3.3,1.4-5.1,1.4c-1.3,0.1-2.5-0.1-3.7-0.5c-1-0.5-2-1.1-2.8-1.9c-0.8-0.8-1.4-1.7-1.8-2.8
		c-0.4-1.2-0.6-2.4-0.5-3.7c-0.1-1.3,0.1-2.5,0.5-3.7c0.5-0.9,0.9-2.3,1.8-2.8c0.8-0.8,1.7-1.4,2.8-1.8c2.3-1.2,5.1-1.2,7.4,0
		c1,0.6,2,1.4,2.8,2.3c0.8,0.9,1.3,2,1.4,3.2c0.4,1.2,0.5,2.4,0.5,3.7H66.1C66.3,12.2,66.8,13.3,67.4,14.3z M73,5.1
		c-0.8-0.7-1.8-1-2.8-0.9c-0.9,0-1.4,0-1.8,0.5c-0.5,0-0.9,0.4-0.9,0.9c-0.4,0.4-0.5,0.9-0.5,1.4v0.9h7.9C74.3,6.9,73.7,6,73,5.1
		L73,5.1z"/>
	<path id="Path_21" class="st0" d="M87.3,13.4v5.1h-5.5v-5.1H87.3z"/>
</g>
<path id="Path_22" class="st0" d="M41.1,0c5.8-0.1,11.6,0.9,17.1,2.8c5.5,1.8,9.7,5.1,13.9,8.8c4,4.3,7.1,9.3,9.2,14.8
	c2.3,6,3.2,12.9,3.2,20.8c0.1,6.6-0.9,13.1-2.8,19.4c-1.6,5.6-4.5,10.8-8.3,15.2C69.7,86,65.2,89.5,60,91.9
	c-6,2.5-12.4,3.8-18.9,3.7H0V0H41.1z M39.7,78.1c3,0,5.9-0.4,8.8-1.4c3-1.1,5.7-2.8,7.9-5.1c2.5-2.5,4.4-5.5,5.5-8.8
	c1.4-3.7,1.8-8.3,1.8-13.4c0-4.4-0.4-8.7-1.4-12.9c-0.8-3.7-2.3-7.2-4.6-10.2c-2.2-2.8-5.1-5-8.3-6.5c-4.3-1.6-8.8-2.3-13.4-2.3
	H21.2v60h18.5V78.1z"/>
<g id="Group_3" transform="translate(110.854 0)">
	<path id="Path_23" class="st0" d="M4.6,0.5v3.2l0,0c0-0.5,0.5-0.9,0.9-1.4l1.4-1.4C7.4,0.5,7.9,0.5,8.3,0h3.2v4.6H9.7
		c-0.8-0.1-1.6,0-2.3,0.5L6,6.5C5.5,6.9,5.5,7.4,5.1,8.3c-0.2,0.8-0.4,1.5-0.5,2.3v7.9H0v-18H4.6z"/>
	<path id="Path_24" class="st0" d="M12.9,5.5c0.5-0.9,0.9-2.3,1.8-2.8c0.8-0.8,1.7-1.4,2.8-1.8c1.1-0.7,2.4-1.1,3.7-0.9
		c1.3-0.1,2.5,0.1,3.7,0.5c1,0.5,2,1.1,2.8,1.8c0.8,0.8,1.4,1.7,1.8,2.8C30,6.3,30.1,7.5,30,8.8c0.1,1.3-0.1,2.5-0.5,3.7
		c-0.5,0.9-0.9,2.3-1.8,2.8c-0.8,0.8-1.7,1.4-2.8,1.8c-0.9,1.4-2.3,1.4-3.7,1.4c-1.3,0.1-2.5-0.1-3.7-0.5c-1-0.5-2-1.1-2.8-1.8
		c-0.8-0.8-1.4-1.7-1.8-2.8c-0.4-1.2-0.6-2.5-0.5-3.7C12.3,8.3,12.5,6.9,12.9,5.5z M17.1,11.5c0.1,0.7,0.4,1.3,0.9,1.8
		c0.5,0.5,0.9,0.5,1.4,0.9c0.5,0.4,1.2,0.5,1.8,0.5c0.7,0.1,1.3-0.1,1.8-0.5c0.9-0.5,1.4-0.5,1.8-1.4c0.5-0.5,0.5-0.9,0.9-1.8V7.4
		c-0.1-0.7-0.4-1.3-0.9-1.8l-1.4-1.4c-0.5-0.4-1.2-0.5-1.8-0.5c-0.7-0.1-1.3,0.1-1.8,0.5C19.2,4.5,18.5,5,18,5.5
		c-0.5,0.5-0.5,0.9-0.9,1.8v1.8C17.1,10.2,17.1,10.6,17.1,11.5L17.1,11.5z"/>
	<path id="Path_25" class="st0" d="M33.7,5.5c0.5-0.9,0.9-2.3,1.8-2.8c0.8-0.8,1.7-1.4,2.8-1.8C39.3,0,40.6,0,42,0
		c1.3-0.1,2.5,0.1,3.7,0.5c1,0.5,2,1.1,2.8,1.8c0.8,0.8,1.4,1.7,1.8,2.8c0.5,1.3,0.8,2.7,0.9,4.2c0.1,1.3-0.1,2.5-0.5,3.7
		c-0.5,0.9-0.9,2.3-1.8,2.8c-0.8,0.8-1.7,1.4-2.8,1.8c-1.3,0.7-2.7,1.1-4.2,0.9c-1.3,0.1-2.5-0.1-3.7-0.5c-1-0.5-2-1.1-2.8-1.8
		c-0.8-0.8-1.4-1.7-1.8-2.8c-0.4-1.2-0.6-2.4-0.5-3.7C32.9,8.3,33.1,6.8,33.7,5.5z M37.9,11.5c0.1,0.7,0.4,1.3,0.9,1.8
		c0.5,0.5,0.9,0.5,1.4,0.9c0.5,0.4,1.2,0.5,1.8,0.5c0.9,0,1.4,0,1.8-0.5c0.9-0.5,1.4-0.5,1.4-1.4c0.5-0.5,0.9-0.9,0.9-1.4V7.8
		c-0.1-0.7-0.4-1.3-0.9-1.8l-1.4-1.4c-0.5-0.4-1.2-0.5-1.8-0.5c-0.9,0-1.4,0-1.8,0.5L38.8,6c-0.5,0.5-0.5,0.9-0.9,1.8v1.9
		C37.9,10.2,37.9,10.6,37.9,11.5L37.9,11.5z"/>
	<path id="Path_26" class="st0" d="M59.1,0.5v2.3l0,0c0.5-0.9,1.4-1.4,2.3-2.3c0.9,0,1.8-0.5,2.8-0.5c1.1-0.1,2.2,0.1,3.2,0.5
		c0.9,0.5,1.4,1.4,2.3,2.3c0.5-0.9,1.4-1.5,2.3-1.8c0.8-0.7,1.8-1,2.8-0.9c0.9-0.1,1.9,0.1,2.8,0.5c0.7,0,1.4,0.4,1.8,0.9
		c0.6,0.5,1,1.2,1.4,1.8c0.4,0.9,0.5,1.8,0.5,2.8v11.6h-4.6V6c0.1-0.5-0.1-1-0.5-1.4c0-0.5-0.5-0.5-0.9-0.9c-0.5,0-0.9-0.5-1.4-0.5
		c-0.7-0.1-1.3,0.1-1.8,0.5c-0.5,0.9-0.9,0.9-1.4,1.4c-0.4,0.4-0.5,0.9-0.5,1.4v11.1h-4.6V6.9c0.1-0.5-0.1-1-0.5-1.4
		c0-0.9-0.5-0.9-0.9-1.4s-0.9-0.5-1.8-0.5h-0.9c-0.4,0-0.7,0.2-0.9,0.5c-0.2,0.5-0.6,1-0.9,1.4c-0.4,0.7-0.6,1.5-0.5,2.3V18h-4.6
		V0.5H59.1z"/>
</g>
<path id="Path_27" class="st1" d="M118.2,45.3H43.9v6.9h148.3v-6.9H118.2z"/>
</svg>
