<svg id="Слой_1" data-name="Слой 1" xmlns="http://www.w3.org/2000/svg" viewBox="0 0 276.55 276.55"><defs><style>.cls-1{fill:none;stroke:#000;stroke-miterlimit:10;}</style></defs><title>sssssss</title><path class="cls-1" d="M118,9.46a64.42,64.42,0,1,0,.56-.18"/><path class="cls-1" d="M52,77.12a64.62,64.62,0,1,0,.56-.18"/><path class="cls-1" d="M184,77.12a64.62,64.62,0,1,0,.56-.18"/><path class="cls-1" d="M118,143.12a64.62,64.62,0,1,0,.56-.18"/><path class="cls-1" d="M118,75.46a64.42,64.42,0,1,0,.56-.18"/><path class="cls-1" d="M111.8,56.43a82.65,82.65,0,1,0,.74-.24"/><line class="cls-1" x1="138.28" y1="138.28" x2="92.01" y2="92.01"/><line class="cls-1" x1="184.54" y1="184.54" x2="138.28" y2="138.28"/><line class="cls-1" x1="138.28" y1="138.28" x2="92.01" y2="184.54"/><line class="cls-1" x1="184.54" y1="92.01" x2="138.28" y2="138.28"/></svg>