<svg id="Слой_1" data-name="Слой 1" xmlns="http://www.w3.org/2000/svg" viewBox="0 0 264 264"><defs><style>.cls-1{fill:none;stroke:#000;stroke-miterlimit:10;}</style></defs><title>Монтажная область 2</title><path d="M132,47a85,85,0,1,1-85,85,85.1,85.1,0,0,1,85-85m0-1a86,86,0,1,0,86,86,86,86,0,0,0-86-86Z"/><path d="M132,67a65,65,0,1,1-65,65,65.08,65.08,0,0,1,65-65m0-1a66,66,0,1,0,66,66,66,66,0,0,0-66-66Z"/><path d="M198,67a65,65,0,1,1-65,65,65.08,65.08,0,0,1,65-65m0-1a66,66,0,1,0,66,66,66,66,0,0,0-66-66Z"/><path d="M132,133a65,65,0,1,1-65,65,65.08,65.08,0,0,1,65-65m0-1a66,66,0,1,0,66,66,66,66,0,0,0-66-66Z"/><path d="M132,1A65,65,0,1,1,67,66,65.08,65.08,0,0,1,132,1m0-1a66,66,0,1,0,66,66A66,66,0,0,0,132,0Z"/><path d="M66,67A65,65,0,1,1,1,132,65.08,65.08,0,0,1,66,67m0-1a66,66,0,1,0,66,66A66,66,0,0,0,66,66Z"/><line class="cls-1" x1="132" y1="132" x2="85.73" y2="85.73"/><line class="cls-1" x1="178.27" y1="178.27" x2="132" y2="132"/><line class="cls-1" x1="132" y1="132" x2="85.73" y2="178.27"/><line class="cls-1" x1="178.27" y1="85.73" x2="132" y2="132"/></svg>