<svg width="48" height="48" viewBox="0 0 48 48" fill="none" xmlns="http://www.w3.org/2000/svg">
<g id="ASSETS">
<path id="Vector" d="M24 39.12C18.75 39.12 14.109 36.432 11.4 32.4C11.463 28.2 19.8 25.89 24 25.89C28.2 25.89 36.537 28.2 36.6 32.4C35.2117 34.4673 33.3363 36.1614 31.1391 37.3333C28.9419 38.5051 26.4902 39.1187 24 39.12ZM24 9.3C25.6709 9.3 27.2733 9.96375 28.4548 11.1452C29.6363 12.3267 30.3 13.9291 30.3 15.6C30.3 17.2709 29.6363 18.8733 28.4548 20.0548C27.2733 21.2363 25.6709 21.9 24 21.9C22.3291 21.9 20.7267 21.2363 19.5452 20.0548C18.3637 18.8733 17.7 17.2709 17.7 15.6C17.7 13.9291 18.3637 12.3267 19.5452 11.1452C20.7267 9.96375 22.3291 9.3 24 9.3ZM24 3C21.2422 3 18.5115 3.54318 15.9636 4.59853C13.4158 5.65388 11.1008 7.20073 9.15076 9.15076C5.21249 13.089 3 18.4305 3 24C3 29.5695 5.21249 34.911 9.15076 38.8492C11.1008 40.7993 13.4158 42.3461 15.9636 43.4015C18.5115 44.4568 21.2422 45 24 45C29.5695 45 34.911 42.7875 38.8492 38.8492C42.7875 34.911 45 29.5695 45 24C45 12.387 35.55 3 24 3Z" fill="black"/>
</g>
</svg>
