<svg width="48" height="48" viewBox="0 0 48 48" fill="none" xmlns="http://www.w3.org/2000/svg">
<g id="MONTHLY">
<path id="Vector" d="M29.6605 22.34C31.1588 23.8426 32.0002 25.878 32.0002 28C32.0002 30.122 31.1588 32.1574 29.6605 33.66C28.1579 35.1583 26.1225 35.9997 24.0005 35.9997C21.8785 35.9997 19.8431 35.1583 18.3405 33.66L29.6605 22.34ZM12.0005 4H36.0005C37.0614 4 38.0788 4.42143 38.8289 5.17157C39.5791 5.92172 40.0005 6.93913 40.0005 8V40C40.0005 41.0609 39.5791 42.0783 38.8289 42.8284C38.0788 43.5786 37.0614 44 36.0005 44H12.0005C10.9396 44 9.92221 43.5786 9.17206 42.8284C8.42192 42.0783 8.00049 41.0609 8.00049 40V8C8.00049 6.93913 8.42192 5.92172 9.17206 5.17157C9.92221 4.42143 10.9396 4 12.0005 4ZM14.0005 8C13.4701 8 12.9613 8.21071 12.5863 8.58579C12.2112 8.96086 12.0005 9.46957 12.0005 10C12.0005 10.5304 12.2112 11.0391 12.5863 11.4142C12.9613 11.7893 13.4701 12 14.0005 12C14.5309 12 15.0396 11.7893 15.4147 11.4142C15.7898 11.0391 16.0005 10.5304 16.0005 10C16.0005 9.46957 15.7898 8.96086 15.4147 8.58579C15.0396 8.21071 14.5309 8 14.0005 8ZM20.0005 8C19.4701 8 18.9613 8.21071 18.5863 8.58579C18.2112 8.96086 18.0005 9.46957 18.0005 10C18.0005 10.5304 18.2112 11.0391 18.5863 11.4142C18.9613 11.7893 19.4701 12 20.0005 12C20.5309 12 21.0396 11.7893 21.4147 11.4142C21.7898 11.0391 22.0005 10.5304 22.0005 10C22.0005 9.46957 21.7898 8.96086 21.4147 8.58579C21.0396 8.21071 20.5309 8 20.0005 8ZM24.0005 16C20.8179 16 17.7656 17.2643 15.5152 19.5147C13.2648 21.7652 12.0005 24.8174 12.0005 28C12.0005 31.1826 13.2648 34.2348 15.5152 36.4853C17.7656 38.7357 20.8179 40 24.0005 40C27.1831 40 30.2353 38.7357 32.4858 36.4853C34.7362 34.2348 36.0005 31.1826 36.0005 28C36.0005 24.8174 34.7362 21.7652 32.4858 19.5147C30.2353 17.2643 27.1831 16 24.0005 16Z" fill="black"/>
</g>
</svg>
