<svg width="459" height="565" viewBox="0 0 459 565" fill="none" xmlns="http://www.w3.org/2000/svg">
<g id="Parrot">
<g id="Parrot_2">
<g id="Group">
<g id="Group_2">
<g id="Group_3">
<g id="Group_4">
<path id="Vector" d="M252.994 397.351C253.938 397.351 254.881 396.988 255.534 396.262C256.986 394.811 256.986 392.561 255.534 391.11L219.247 354.823C217.796 353.371 215.546 353.371 214.094 354.823C212.643 356.274 212.643 358.524 214.094 359.975L250.381 396.262C251.107 396.988 252.051 397.351 252.994 397.351Z" fill="#F2726C"/>
</g>
<g id="Group_5">
<path id="Vector_2" d="M252.998 397.352C255.03 397.352 256.626 395.755 256.626 393.723C256.626 388.135 261.126 383.635 266.714 383.635C272.302 383.635 276.802 388.135 276.802 393.723C276.802 395.755 278.399 397.352 280.431 397.352C282.463 397.352 284.059 395.755 284.059 393.723C284.059 384.143 276.294 376.378 266.714 376.378C257.134 376.378 249.369 384.143 249.369 393.723C249.369 395.755 250.965 397.352 252.998 397.352Z" fill="#F2726C"/>
</g>
</g>
<g id="Group_6">
<path id="Vector_3" d="M119.026 372.896V535.534C119.026 542.647 121.566 549.251 125.848 554.331C127.88 556.799 130.348 558.976 133.105 560.645C135.355 562.024 137.75 563.113 140.29 563.838C142.613 564.492 145.008 564.927 147.548 565C147.838 565 148.201 565 148.491 565C164.675 565 177.956 551.718 177.956 535.534V372.896C177.956 356.639 164.675 343.43 148.491 343.43C140.363 343.43 133.033 346.769 127.662 352.067C122.364 357.437 119.026 364.767 119.026 372.896Z" fill="#222433"/>
<g id="Group_7" opacity="0.5">
<path id="Vector_4" opacity="0.5" d="M125.853 373.983V554.33C127.885 556.798 130.352 558.975 133.11 560.644V373.983H125.853Z" fill="url(#paint0_linear)"/>
</g>
<g id="Group_8">
<path id="Vector_5" opacity="0.5" d="M140.288 373.984V563.838C142.61 564.491 145.005 564.926 147.545 564.999V373.984H140.288Z" fill="url(#paint1_linear)"/>
</g>
<g id="Group_9">
<path id="Vector_6" d="M148.488 550.483C167.575 550.483 183.033 534.952 183.033 515.938C183.033 513.906 181.437 512.309 179.405 512.309C177.373 512.309 175.776 513.906 175.776 515.938C175.776 531.033 163.511 543.226 148.488 543.226C133.393 543.226 121.2 530.961 121.2 515.938C121.2 513.906 119.604 512.309 117.572 512.309C115.539 512.309 113.943 513.906 113.943 515.938C113.943 534.952 129.474 550.483 148.488 550.483Z" fill="#32535D"/>
</g>
<g id="Group_10">
<path id="Vector_7" d="M148.488 528.567C167.575 528.567 183.033 513.036 183.033 494.022C183.033 491.99 181.437 490.393 179.405 490.393C177.373 490.393 175.776 491.99 175.776 494.022C175.776 509.117 163.511 521.31 148.488 521.31C133.393 521.31 121.2 509.045 121.2 494.022C121.2 491.99 119.604 490.393 117.572 490.393C115.539 490.393 113.943 491.99 113.943 494.022C113.943 513.036 129.474 528.567 148.488 528.567Z" fill="#32535D"/>
</g>
<path id="Vector_8" d="M119.026 392.925C191.165 392.925 293.567 320.206 303.945 231.81C314.759 139.931 248.789 70.623 176.215 70.623V203.942C176.215 232.318 170.989 260.477 160.611 286.894L119.026 392.925Z" fill="#222433"/>
<g id="Group_11">
<path id="Vector_9" d="M248.208 304.749C245.522 310.772 240.95 315.417 235.434 318.102C233.765 312.224 234.056 305.692 236.741 299.668C239.426 293.645 243.998 289 249.514 286.315C251.183 292.193 250.82 298.652 248.208 304.749Z" fill="url(#paint2_linear)"/>
<path id="Vector_10" d="M213.589 304.749C210.903 310.772 206.331 315.417 200.816 318.102C199.146 312.224 199.437 305.692 202.122 299.668C204.807 293.645 209.379 289 214.895 286.315C216.564 292.193 216.274 298.652 213.589 304.749Z" fill="url(#paint3_linear)"/>
<path id="Vector_11" d="M223.603 326.522C220.917 332.545 216.345 337.19 210.829 339.875C209.16 333.997 209.451 327.465 212.136 321.442C214.821 315.418 219.393 310.773 224.909 308.088C226.578 313.966 226.288 320.426 223.603 326.522Z" fill="url(#paint4_linear)"/>
</g>
<g id="Group_12">
<g id="Vector_12">
<path d="M106.031 326.518C106.031 330.074 106.104 333.63 106.394 337.186C106.902 345.532 107.991 353.878 109.66 362.152C109.95 363.531 110.241 364.91 110.531 366.289C111.111 368.756 119.24 392.706 119.022 392.923C148.269 370.353 170.622 338.347 180.855 299.883C181.436 297.633 182.016 295.384 182.524 293.061C184.702 283.554 186.153 273.684 186.806 263.596C188.548 238.34 185.427 212.213 176.211 189.715C173.961 191.457 171.711 193.272 169.461 195.159C143.189 217.149 121.417 245.888 111.91 281.377C109.733 289.505 108.136 297.778 107.192 306.125C106.394 312.947 106.031 319.696 106.031 326.518Z" fill="#25386D"/>
<path d="M106.031 326.518C106.031 330.074 106.104 333.63 106.394 337.186C106.902 345.532 107.991 353.878 109.66 362.152C109.95 363.531 110.241 364.91 110.531 366.289C111.111 368.756 119.24 392.706 119.022 392.923C148.269 370.353 170.622 338.347 180.855 299.883C181.436 297.633 182.016 295.384 182.524 293.061C184.702 283.554 186.153 273.684 186.806 263.596C188.548 238.34 185.427 212.213 176.211 189.715C173.961 191.457 171.711 193.272 169.461 195.159C143.189 217.149 121.417 245.888 111.91 281.377C109.733 289.505 108.136 297.778 107.192 306.125C106.394 312.947 106.031 319.696 106.031 326.518Z" fill="#222433" fill-opacity="0.3"/>
</g>
</g>
<g id="Group_13">
<path id="Vector_13" d="M107.194 306.127C134.482 283.774 155.311 252.93 165.108 216.207C165.689 213.957 166.269 211.708 166.777 209.385C167.866 204.74 168.737 199.951 169.463 195.088C143.191 217.078 121.418 245.817 111.911 281.306C109.734 289.507 108.137 297.781 107.194 306.127Z" fill="url(#paint5_linear)"/>
</g>
<path id="Vector_14" d="M285.729 198.717C285.729 231.085 261.199 257.284 230.936 257.284C200.672 257.284 176.142 231.085 176.142 198.717V81.5096C237.177 81.5096 285.729 133.981 285.729 198.717Z" fill="#F26C74"/>
<path id="Vector_15" d="M176.212 81.5096V170.486C176.212 195.088 193.122 214.974 214.023 214.974C234.924 214.974 251.834 195.016 251.834 170.486C251.834 122.949 220.482 84.1223 180.421 81.5822C178.97 81.5822 177.591 81.5096 176.212 81.5096Z" fill="#F8EA8C"/>
<g id="Group_14">
<path id="Vector_16" d="M199.076 131.731C188.775 131.731 180.424 123.38 180.424 113.079C180.424 102.778 188.775 94.4276 199.076 94.4276C209.377 94.4276 217.728 102.778 217.728 113.079C217.728 123.38 209.377 131.731 199.076 131.731Z" fill="#43A3A8"/>
<path id="Vector_17" d="M199.077 122.806C193.706 122.806 189.352 118.452 189.352 113.081C189.352 107.71 193.706 103.356 199.077 103.356C204.448 103.356 208.802 107.71 208.802 113.081C208.802 118.452 204.448 122.806 199.077 122.806Z" fill="url(#paint6_linear)"/>
</g>
<path id="Vector_18" d="M11.98 115.909C25.6965 116.853 36.5826 127.957 37.2358 141.673C48.4122 138.19 60.2418 136.375 72.5069 136.375H176.215V70.623H90.215C79.982 70.623 70.1119 72.2923 60.9676 75.4855C40.2114 82.5978 22.7935 97.1126 11.98 115.909Z" fill="#F8EA8C"/>
<path id="Vector_19" d="M30.6315 160.833H176.215V136.375H72.5795C60.3144 136.375 48.4848 138.19 37.3084 141.673C37.3084 142.109 37.3084 142.544 37.3084 143.052C37.3084 149.801 34.7683 156.115 30.6315 160.833Z" fill="#F26A6C"/>
<g id="Group_15">
<path id="Vector_20" d="M157.053 70.623H176.213V136.375H157.053V70.623Z" fill="url(#paint7_linear)"/>
<path id="Vector_21" d="M157.053 136.375H176.213V160.905H157.053V136.375Z" fill="black"/>
</g>
<path id="Vector_22" d="M0.0052681 160.833C11.0366 152.415 23.6645 145.811 37.2358 141.601C36.5827 127.812 25.6965 116.781 11.98 115.837C4.35972 129.119 0.0052681 144.504 0.0052681 160.833Z" fill="#25316D"/>
<path id="Vector_23" d="M0.0052681 160.834H30.559C33.6071 157.351 35.7843 153.069 36.7278 148.351C37.0907 146.61 37.2358 144.868 37.2358 142.981C37.2358 142.546 37.2358 142.11 37.2358 141.602C23.6645 145.884 11.1091 152.416 0.0052681 160.834Z" fill="#222433"/>
<path id="Vector_24" opacity="0.7" d="M122.436 136.375H157.054V70.623H118.299C120.113 78.1708 121.783 86.8071 122.726 96.3869C124.25 111.773 123.669 125.344 122.436 136.375Z" fill="url(#paint8_linear)"/>
<mask id="mask0" mask-type="alpha" maskUnits="userSpaceOnUse" x="191" y="106" width="13" height="13">
<g id="SVGID 12">
<g id="Group_16">
<path id="Vector_25" d="M197.842 118.233C194.515 118.233 191.818 115.537 191.818 112.21C191.818 108.883 194.515 106.186 197.842 106.186C201.168 106.186 203.865 108.883 203.865 112.21C203.865 115.537 201.168 118.233 197.842 118.233Z" fill="url(#paint9_linear)"/>
</g>
</g>
</mask>
<g mask="url(#mask0)">
<path id="Vector_26" d="M197.84 118.231C194.513 118.231 191.816 115.534 191.816 112.208C191.816 108.881 194.513 106.184 197.84 106.184C201.167 106.184 203.864 108.881 203.864 112.208C203.864 115.534 201.167 118.231 197.84 118.231Z" fill="url(#paint10_linear)"/>
</g>
</g>
<g id="Group_17">
<g id="Group_18">
<path id="Vector_27" d="M200.453 397.352C201.396 397.352 202.34 396.989 202.993 396.263C204.444 394.812 204.444 392.562 202.993 391.11L178.825 366.943C177.374 365.492 175.124 365.492 173.673 366.943C172.221 368.395 172.221 370.644 173.673 372.096L197.84 396.263C198.566 396.989 199.509 397.352 200.453 397.352Z" fill="#F2726C"/>
</g>
<g id="Group_19">
<path id="Vector_28" d="M200.452 397.353C202.484 397.353 204.08 395.756 204.08 393.724C204.08 388.136 208.58 383.636 214.168 383.636C219.756 383.636 224.256 388.136 224.256 393.724C224.256 395.756 225.853 397.353 227.885 397.353C229.917 397.353 231.513 395.756 231.513 393.724C231.513 384.144 223.748 376.379 214.168 376.379C204.588 376.379 196.823 384.144 196.823 393.724C196.823 395.756 198.42 397.353 200.452 397.353Z" fill="#F2726C"/>
</g>
</g>
</g>
<g id="Group_20">
<g id="Group_21">
<path id="Vector_29" d="M42.7852 401.998H351.951C354.927 401.998 357.395 399.531 357.395 396.555C357.395 393.579 354.927 391.112 351.951 391.112H42.7852C39.8097 391.112 37.3422 393.579 37.3422 396.555C37.3422 399.531 39.8097 401.998 42.7852 401.998Z" fill="#A86E58"/>
</g>
</g>
</g>
<g id="Group_22">
<path id="Vector_30" d="M227.812 397.353C229.844 397.353 231.441 395.757 231.441 393.725C231.441 384.145 223.675 376.379 214.095 376.379C212.063 376.379 210.467 377.976 210.467 380.008C210.467 382.04 212.063 383.637 214.095 383.637C219.684 383.637 224.183 388.136 224.183 393.725C224.183 395.757 225.852 397.353 227.812 397.353Z" fill="#F2726C"/>
</g>
<g id="Group_23">
<path id="Vector_31" d="M280.353 397.356C282.385 397.356 283.982 395.76 283.982 393.727C283.982 384.148 276.216 376.382 266.637 376.382C264.605 376.382 263.008 377.979 263.008 380.011C263.008 382.043 264.605 383.64 266.637 383.64C272.225 383.64 276.725 388.139 276.725 393.727C276.725 395.76 278.394 397.356 280.353 397.356Z" fill="#F2726C"/>
</g>
</g>
<path id="Vector_32" d="M265.119 48.5843C265.119 48.5843 279.819 42.5906 284.237 30.276C288.656 17.9614 281.119 3.98922 281.119 3.98922C281.119 3.98922 266.418 9.98295 262 22.2975C257.582 34.6121 265.119 48.5843 265.119 48.5843Z" fill="#F2726C"/>
<path id="Vector_33" d="M357.611 229.266C357.611 229.266 369.492 241.798 384.019 241.679C398.547 241.56 410.22 228.835 410.22 228.835C410.22 228.835 398.34 216.303 383.813 216.422C369.285 216.541 357.611 229.266 357.611 229.266Z" fill="#FAA881"/>
<path id="Vector_34" d="M316.549 383.779C316.549 383.779 332.238 386.255 343.037 378.051C353.836 369.847 355.657 354.069 355.657 354.069C355.657 354.069 339.968 351.592 329.169 359.796C318.37 368 316.549 383.779 316.549 383.779Z" fill="#7675FD"/>
<path id="Vector_35" d="M277.969 406.708C277.969 406.708 275.391 417.915 280.807 425.931C286.223 433.948 297.582 435.739 297.582 435.739C297.582 435.739 300.16 424.532 294.744 416.516C289.328 408.499 277.969 406.708 277.969 406.708Z" fill="#43A3A8"/>
<path id="Vector_36" d="M334.346 99.0473C334.346 99.0473 372.298 106.809 402.948 88.8278C433.598 70.8467 445.339 33.932 445.339 33.932C445.339 33.932 407.388 26.1703 376.738 44.1514C346.088 62.1325 334.346 99.0473 334.346 99.0473Z" fill="#7675FD"/>
</g>
<defs>
<linearGradient id="paint0_linear" x1="129.467" y1="555.917" x2="129.467" y2="394.218" gradientUnits="userSpaceOnUse">
<stop stop-color="#24C667"/>
<stop offset="1" stop-color="#244C6B"/>
</linearGradient>
<linearGradient id="paint1_linear" x1="143.917" y1="601.15" x2="143.917" y2="420.93" gradientUnits="userSpaceOnUse">
<stop stop-color="#24C667"/>
<stop offset="1" stop-color="#244C6B"/>
</linearGradient>
<linearGradient id="paint2_linear" x1="232.717" y1="324.123" x2="246.01" y2="294.104" gradientUnits="userSpaceOnUse">
<stop offset="0.5313" stop-color="#244C6B"/>
<stop offset="1" stop-color="#24236D"/>
</linearGradient>
<linearGradient id="paint3_linear" x1="198.105" y1="324.123" x2="211.399" y2="294.104" gradientUnits="userSpaceOnUse">
<stop offset="0.5313" stop-color="#244C6B"/>
<stop offset="1" stop-color="#24236D"/>
</linearGradient>
<linearGradient id="paint4_linear" x1="208.175" y1="345.879" x2="221.469" y2="315.861" gradientUnits="userSpaceOnUse">
<stop offset="0.5313" stop-color="#244C6B"/>
<stop offset="1" stop-color="#24236D"/>
</linearGradient>
<linearGradient id="paint5_linear" x1="179.176" y1="164.387" x2="122.569" y2="282.683" gradientUnits="userSpaceOnUse">
<stop stop-color="#7675FD"/>
<stop offset="1" stop-color="#244C6B"/>
</linearGradient>
<linearGradient id="paint6_linear" x1="204.36" y1="120.18" x2="193.353" y2="105.302" gradientUnits="userSpaceOnUse">
<stop/>
<stop offset="1" stop-color="#24236D"/>
</linearGradient>
<linearGradient id="paint7_linear" x1="166.621" y1="133.424" x2="166.621" y2="73.9053" gradientUnits="userSpaceOnUse">
<stop stop-color="#24236D"/>
<stop offset="1" stop-color="#244C6B"/>
</linearGradient>
<linearGradient id="paint8_linear" x1="137.647" y1="134.875" x2="137.647" y2="79.0651" gradientUnits="userSpaceOnUse">
<stop stop-color="#EE2A7B"/>
<stop offset="1" stop-color="#F15665"/>
</linearGradient>
<linearGradient id="paint9_linear" x1="199.615" y1="117.007" x2="195.982" y2="107.32" gradientUnits="userSpaceOnUse">
<stop offset="0.00386639"/>
<stop offset="0.9994" stop-color="white"/>
</linearGradient>
<linearGradient id="paint10_linear" x1="199.613" y1="117.004" x2="195.981" y2="107.317" gradientUnits="userSpaceOnUse">
<stop offset="0.00386639"/>
<stop offset="0.9994" stop-color="#C6C6FF"/>
</linearGradient>
</defs>
</svg>
