<svg width="128" height="32" viewBox="0 0 128 32" fill="none" xmlns="http://www.w3.org/2000/svg">
<g id="social">
<g id="Facebook">
<rect id="Base" x="48" width="32" height="32" rx="16" fill="#333333"/>
<path id="&#208;&#176;" fill-rule="evenodd" clip-rule="evenodd" d="M65.0912 9.25C62.5617 9.25 61.6722 10.3742 61.6722 12.2641V13.6537H60.0962V15.9712H61.6722V22.6917H64.8251V15.9712H66.9312L67.2102 13.6537H64.8251L64.8308 12.4946C64.8308 11.8912 64.8955 11.5668 65.881 11.5668H67.1952V9.25H65.0912Z" fill="white"/>
</g>
<g id="LinkedIn">
<rect id="Base_2" x="96" width="32" height="32" rx="16" fill="#333333"/>
<path id="in" fill-rule="evenodd" clip-rule="evenodd" d="M109.151 10.4352C109.408 9.41258 108.692 8.53857 107.589 8.53857C106.861 8.53857 106.283 8.88937 106.056 9.46609C105.692 10.3877 106.241 11.3449 107.225 11.4995C108.149 11.6541 108.954 11.2082 109.151 10.4352ZM113.475 13.884C113.502 13.8542 113.521 13.8349 113.536 13.8201L113.536 13.8201C113.551 13.8052 113.561 13.7948 113.57 13.7829C114.328 12.677 115.413 12.3559 116.677 12.5462C118.138 12.7721 119.075 13.7888 119.313 15.3466C119.367 15.7152 119.397 16.0898 119.397 16.4584C119.397 16.8464 119.396 17.2343 119.396 17.6223C119.395 18.7861 119.394 19.95 119.403 21.1138C119.403 21.2863 119.361 21.3398 119.182 21.3398C118.365 21.3279 117.548 21.3279 116.737 21.3398C116.558 21.3398 116.51 21.2922 116.516 21.1138C116.522 19.6631 116.522 18.2183 116.516 16.7676C116.516 16.4406 116.492 16.1136 116.403 15.7925C116.105 14.7699 114.942 14.4131 114.107 15.0909C113.66 15.4596 113.481 15.9412 113.487 16.5119C113.491 17.4234 113.49 18.3322 113.488 19.2419V19.2422C113.488 19.6972 113.487 20.1525 113.487 20.6085C113.487 20.6594 113.486 20.7104 113.485 20.7614V20.7614C113.483 20.8888 113.48 21.0162 113.493 21.1436C113.505 21.2982 113.439 21.3279 113.302 21.3279C112.473 21.3219 111.638 21.3219 110.809 21.3279C110.66 21.3279 110.607 21.2982 110.607 21.1317C110.619 19.9009 110.625 18.6702 110.625 17.4394V17.4393C110.625 15.9232 110.625 14.4071 110.613 12.897C110.613 12.7305 110.648 12.683 110.815 12.683C111.644 12.6948 112.479 12.6889 113.308 12.683C113.457 12.683 113.499 12.7246 113.493 12.8732C113.473 13.1446 113.474 13.4078 113.475 13.7003C113.475 13.7602 113.475 13.8213 113.475 13.884ZM109.009 17.0236C109.009 18.3911 109.009 19.7527 109.015 21.1202C109.015 21.2926 108.979 21.352 108.794 21.3461C107.971 21.3342 107.148 21.3401 106.325 21.3461C106.17 21.3461 106.123 21.3104 106.123 21.1499C106.123 18.3971 106.123 15.6443 106.117 12.8914C106.117 12.7487 106.152 12.7012 106.302 12.7012C107.142 12.7071 107.977 12.7071 108.818 12.7012C108.985 12.7012 109.009 12.7606 109.009 12.9093V17.0236Z" fill="white"/>
</g>
<g id="Twitter">
<rect id="Base_3" width="32" height="32" rx="16" fill="#333333"/>
<path id="Vector" d="M23.253 12.6598C23.2624 12.8021 23.2624 12.9505 23.2624 13.0959C23.2624 17.5415 19.7557 22.6625 13.3478 22.6625C11.3717 22.6625 9.54 22.1083 7.99683 21.1544C8.27911 21.1847 8.54886 21.1968 8.83742 21.1968C10.4684 21.1968 11.9677 20.6638 13.1627 19.7613C11.6321 19.7311 10.3461 18.762 9.90698 17.4295C10.4433 17.5052 10.9264 17.5052 11.4784 17.3689C10.6903 17.2143 9.98186 16.801 9.47356 16.1993C8.96526 15.5976 8.68839 14.8445 8.69 14.068V14.0256C9.15107 14.2769 9.69369 14.4314 10.2614 14.4526C9.78416 14.1455 9.39277 13.7294 9.12194 13.2413C8.85111 12.7532 8.70921 12.2081 8.70882 11.6544C8.70882 11.0275 8.87819 10.4551 9.18244 9.95846C10.0572 10.9982 11.1488 11.8486 12.3863 12.4544C13.6238 13.0601 14.9794 13.4077 16.3651 13.4744C15.8727 11.188 17.6417 9.33765 19.7683 9.33765C20.772 9.33765 21.6753 9.74345 22.312 10.3976C23.0993 10.2552 23.852 9.97058 24.5233 9.589C24.2629 10.3673 23.7172 11.0245 22.9926 11.4393C23.6952 11.3667 24.3727 11.1789 25 10.9154C24.5264 11.5877 23.9336 12.1843 23.253 12.6598Z" fill="white"/>
</g>
</g>
</svg>
