<svg width="128" height="32" viewBox="0 0 128 32" fill="none" xmlns="http://www.w3.org/2000/svg">
<g id="social">
<path id="Exclude" fill-rule="evenodd" clip-rule="evenodd" d="M64 0C55.1634 0 48 7.16344 48 16C48 24.8366 55.1634 32 64 32C72.8366 32 80 24.8366 80 16C80 7.16344 72.8366 0 64 0ZM61.6722 12.2641C61.6722 10.3742 62.5617 9.25 65.0912 9.25H67.1952V11.5668H65.881C64.8955 11.5668 64.8308 11.8912 64.8308 12.4946L64.8251 13.6537H67.2102L66.9312 15.9712H64.8251V22.6917H61.6722V15.9712H60.0962V13.6537H61.6722V12.2641Z" fill="#333333"/>
<path id="Exclude_2" fill-rule="evenodd" clip-rule="evenodd" d="M112 0C103.163 0 96 7.16344 96 16C96 24.8366 103.163 32 112 32C120.837 32 128 24.8366 128 16C128 7.16344 120.837 0 112 0ZM107.589 8.53845C108.692 8.53845 109.408 9.41246 109.151 10.4351C108.954 11.208 108.149 11.654 107.225 11.4994C106.241 11.3448 105.692 10.3875 106.056 9.46597C106.283 8.88924 106.861 8.53845 107.589 8.53845ZM113.536 13.8199C113.521 13.8348 113.502 13.8541 113.475 13.8838C113.475 13.8212 113.475 13.76 113.475 13.7001C113.474 13.4077 113.473 13.1445 113.493 12.8731C113.499 12.7245 113.457 12.6828 113.308 12.6828C112.479 12.6888 111.644 12.6947 110.815 12.6828C110.648 12.6828 110.613 12.7304 110.613 12.8969C110.625 14.407 110.625 15.9231 110.625 17.4391V17.4393C110.625 18.6701 110.619 19.9008 110.607 21.1316C110.607 21.298 110.66 21.3278 110.809 21.3278C111.638 21.3218 112.473 21.3218 113.302 21.3278C113.439 21.3278 113.505 21.298 113.493 21.1434C113.48 21.016 113.483 20.8886 113.485 20.7612C113.486 20.7103 113.487 20.6593 113.487 20.6083C113.487 20.1535 113.488 19.6993 113.488 19.2453L113.488 19.2421V19.2417C113.49 18.3321 113.491 17.4233 113.487 16.5118C113.481 15.941 113.66 15.4594 114.107 15.0908C114.942 14.413 116.105 14.7697 116.403 15.7924C116.492 16.1135 116.516 16.4405 116.516 16.7675C116.522 18.2182 116.522 19.663 116.516 21.1137C116.51 21.2921 116.558 21.3397 116.737 21.3397C117.548 21.3278 118.365 21.3278 119.182 21.3397C119.361 21.3397 119.403 21.2861 119.403 21.1137C119.394 19.9499 119.395 18.786 119.396 17.6222L119.396 17.6162C119.396 17.2303 119.397 16.8443 119.397 16.4583C119.397 16.0897 119.367 15.7151 119.313 15.3465C119.075 13.7887 118.138 12.772 116.677 12.5461C115.413 12.3558 114.328 12.6769 113.57 13.7828C113.562 13.7947 113.551 13.8051 113.536 13.8199L113.536 13.8199ZM109.015 21.12C109.009 19.7525 109.009 18.391 109.009 17.0235V12.9091C109.009 12.7605 108.985 12.701 108.818 12.701C107.977 12.707 107.142 12.707 106.302 12.701C106.152 12.701 106.117 12.7486 106.117 12.8913C106.123 15.6441 106.123 18.3969 106.123 21.1498C106.123 21.3103 106.17 21.346 106.325 21.346C107.148 21.34 107.971 21.3341 108.794 21.346C108.979 21.3519 109.015 21.2925 109.015 21.12Z" fill="#333333"/>
<path id="Exclude_3" fill-rule="evenodd" clip-rule="evenodd" d="M16 0C7.16344 0 0 7.16344 0 16C0 24.8366 7.16344 32 16 32C24.8366 32 32 24.8366 32 16C32 7.16344 24.8366 0 16 0ZM23.2624 13.0958C23.2624 12.9504 23.2624 12.802 23.2529 12.6597C23.9336 12.1842 24.5264 11.5876 25 10.9153C24.3727 11.1788 23.6952 11.3666 22.9926 11.4393C23.7172 11.0244 24.2629 10.3672 24.5232 9.58891C23.852 9.97049 23.0993 10.2552 22.312 10.3975C21.6753 9.74336 20.7719 9.33756 19.7683 9.33756C17.6417 9.33756 15.8727 11.1879 16.3651 13.4743C14.9794 13.4076 13.6238 13.06 12.3863 12.4543C11.1488 11.8485 10.0572 10.9981 9.18243 9.95838C8.87819 10.455 8.70882 11.0274 8.70882 11.6543C8.7092 12.208 8.8511 12.7531 9.12193 13.2412C9.39276 13.7294 9.78415 14.1454 10.2614 14.4525C9.69369 14.4313 9.15107 14.2769 8.69 14.0255V14.0679C8.68839 14.8444 8.96525 15.5975 9.47355 16.1992C9.98186 16.801 10.6902 17.2142 11.4784 17.3688C10.9263 17.5051 10.4433 17.5051 9.90697 17.4294C10.3461 18.7619 11.6321 19.731 13.1627 19.7613C11.9677 20.6637 10.4684 21.1967 8.83741 21.1967C8.54885 21.1967 8.27911 21.1846 7.99682 21.1543C9.54 22.1082 11.3717 22.6624 13.3478 22.6624C19.7557 22.6624 23.2624 17.5414 23.2624 13.0958Z" fill="#333333"/>
</g>
</svg>
