<svg id="Слой_1" data-name="Слой 1" xmlns="http://www.w3.org/2000/svg" xmlns:xlink="http://www.w3.org/1999/xlink" viewBox="0 0 459 565"><defs><style>.cls-1{fill:url(#Безымянный_градиент_10);}.cls-2{fill:#f2726c;}.cls-12,.cls-3{fill:#222433;}.cls-4,.cls-5,.cls-6{opacity:0.5;}.cls-21,.cls-5,.cls-6{isolation:isolate;}.cls-5{fill:url(#Безымянный_градиент);}.cls-6{fill:url(#Безымянный_градиент_2);}.cls-7{fill:#32535d;}.cls-8{fill:url(#Безымянный_градиент_3);}.cls-9{fill:url(#Безымянный_градиент_4);}.cls-10{fill:url(#Безымянный_градиент_5);}.cls-11{fill:#25386d;}.cls-12{fill-opacity:0.3;}.cls-13{fill:url(#Безымянный_градиент_6);}.cls-14{fill:#f26c74;}.cls-15{fill:#f8ea8c;}.cls-16{fill:#43a3a8;}.cls-17{fill:url(#Безымянный_градиент_7);}.cls-18{fill:#f26a6c;}.cls-19{fill:url(#Безымянный_градиент_8);}.cls-20{fill:#25316d;}.cls-21{opacity:0.7;fill:url(#Безымянный_градиент_9);}.cls-22{mask:url(#mask);}.cls-23{fill:url(#Безымянный_градиент_11);}.cls-24{fill:#a86e58;}.cls-25{fill:#faa881;}.cls-26{fill:#7675fd;}</style><linearGradient id="Безымянный_градиент_10" x1="199.64" y1="449" x2="196" y2="458.69" gradientTransform="matrix(1, 0, 0, -1, 0, 566)" gradientUnits="userSpaceOnUse"><stop offset="0"/><stop offset="1" stop-color="#fff"/></linearGradient><linearGradient id="Безымянный_градиент" x1="129.48" y1="10.08" x2="129.48" y2="171.78" gradientTransform="matrix(1, 0, 0, -1, 0, 566)" gradientUnits="userSpaceOnUse"><stop offset="0" stop-color="#24c667"/><stop offset="1" stop-color="#244c6b"/></linearGradient><linearGradient id="Безымянный_градиент_2" x1="143.92" y1="-35.15" x2="143.92" y2="145.07" xlink:href="#Безымянный_градиент"/><linearGradient id="Безымянный_градиент_3" x1="232.76" y1="241.86" x2="246.05" y2="271.88" gradientTransform="matrix(1, 0, 0, -1, 0, 566)" gradientUnits="userSpaceOnUse"><stop offset="0.53" stop-color="#244c6b"/><stop offset="1" stop-color="#24236d"/></linearGradient><linearGradient id="Безымянный_градиент_4" x1="198.14" y1="241.86" x2="211.44" y2="271.88" xlink:href="#Безымянный_градиент_3"/><linearGradient id="Безымянный_градиент_5" x1="208.17" y1="220.12" x2="221.47" y2="250.14" xlink:href="#Безымянный_градиент_3"/><linearGradient id="Безымянный_градиент_6" x1="179.15" y1="401.62" x2="122.54" y2="283.33" gradientTransform="matrix(1, 0, 0, -1, 0, 566)" gradientUnits="userSpaceOnUse"><stop offset="0" stop-color="#7675fd"/><stop offset="1" stop-color="#244c6b"/></linearGradient><linearGradient id="Безымянный_градиент_7" x1="204.34" y1="445.81" x2="193.33" y2="460.68" gradientTransform="matrix(1, 0, 0, -1, 0, 566)" gradientUnits="userSpaceOnUse"><stop offset="0"/><stop offset="1" stop-color="#24236d"/></linearGradient><linearGradient id="Безымянный_градиент_8" x1="166.63" y1="432.58" x2="166.63" y2="492.09" gradientTransform="matrix(1, 0, 0, -1, 0, 566)" gradientUnits="userSpaceOnUse"><stop offset="0" stop-color="#24236d"/><stop offset="1" stop-color="#244c6b"/></linearGradient><linearGradient id="Безымянный_градиент_9" x1="137.68" y1="431.13" x2="137.68" y2="486.93" gradientTransform="matrix(1, 0, 0, -1, 0, 566)" gradientUnits="userSpaceOnUse"><stop offset="0" stop-color="#ee2a7b"/><stop offset="1" stop-color="#f15665"/></linearGradient><mask id="mask" x="191.82" y="106.18" width="12.05" height="12.05" maskUnits="userSpaceOnUse"><g id="mask0"><g id="Group_16" data-name="Group 16"><path id="Vector_25" data-name="Vector 25" class="cls-1" d="M197.84,118.23a6,6,0,1,1,6-6A6,6,0,0,1,197.84,118.23Z"/></g></g></mask><linearGradient id="Безымянный_градиент_11" x1="199.64" y1="449" x2="196" y2="458.69" gradientTransform="matrix(1, 0, 0, -1, 0, 566)" gradientUnits="userSpaceOnUse"><stop offset="0"/><stop offset="1" stop-color="#c6c6ff"/></linearGradient></defs><title>Монтажная область 1</title><g id="Parrot"><g id="Parrot_2" data-name="Parrot 2"><g id="Group"><g id="Group_2" data-name="Group 2"><g id="Group_3" data-name="Group 3"><g id="Group_4" data-name="Group 4"><path id="Vector" class="cls-2" d="M253,397.35a3.37,3.37,0,0,0,2.54-1.09,3.58,3.58,0,0,0,0-5.15l-36.28-36.29a3.65,3.65,0,1,0-5.16,5.16l36.29,36.28A3.67,3.67,0,0,0,253,397.35Z"/></g><g id="Group_5" data-name="Group 5"><path id="Vector_2" data-name="Vector 2" class="cls-2" d="M253,397.35a3.59,3.59,0,0,0,3.63-3.63,10.09,10.09,0,0,1,20.17,0,3.63,3.63,0,0,0,7.26,0,17.35,17.35,0,0,0-34.69,0A3.59,3.59,0,0,0,253,397.35Z"/></g></g><g id="Group_6" data-name="Group 6"><path id="Vector_3" data-name="Vector 3" class="cls-3" d="M119,372.9V535.53a29.71,29.71,0,0,0,14.07,25.12A29.45,29.45,0,0,0,147.55,565h.94A29.58,29.58,0,0,0,178,535.53V372.9a29.47,29.47,0,0,0-58.93,0Z"/><g id="Group_7" data-name="Group 7" class="cls-4"><path id="Vector_4" data-name="Vector 4" class="cls-5" d="M125.85,374V554.33a28.86,28.86,0,0,0,7.26,6.31V374Z"/></g><g id="Group_8" data-name="Group 8"><path id="Vector_5" data-name="Vector 5" class="cls-6" d="M140.29,374V563.84a29.77,29.77,0,0,0,7.25,1.16V374Z"/></g><g id="Group_9" data-name="Group 9"><path id="Vector_6" data-name="Vector 6" class="cls-7" d="M148.49,550.48A34.58,34.58,0,0,0,183,515.94a3.63,3.63,0,1,0-7.25,0,27.29,27.29,0,0,1-54.58,0,3.63,3.63,0,1,0-7.26,0A34.63,34.63,0,0,0,148.49,550.48Z"/></g><g id="Group_10" data-name="Group 10"><path id="Vector_7" data-name="Vector 7" class="cls-7" d="M148.49,528.57A34.58,34.58,0,0,0,183,494a3.63,3.63,0,1,0-7.25,0,27.29,27.29,0,0,1-54.58,0,3.63,3.63,0,0,0-7.26,0A34.63,34.63,0,0,0,148.49,528.57Z"/></g><path id="Vector_8" data-name="Vector 8" class="cls-3" d="M119,392.92c72.13,0,174.54-72.71,184.92-161.11,10.81-91.88-55.16-161.19-127.74-161.19V203.94a226.74,226.74,0,0,1-15.6,82.95Z"/><g id="Group_11" data-name="Group 11"><path id="Vector_9" data-name="Vector 9" class="cls-8" d="M248.21,304.75a27,27,0,0,1-12.78,13.35,27.23,27.23,0,0,1,14.08-31.78A27.54,27.54,0,0,1,248.21,304.75Z"/><path id="Vector_10" data-name="Vector 10" class="cls-9" d="M213.59,304.75a27,27,0,0,1-12.77,13.35,27.2,27.2,0,0,1,14.08-31.78A27.18,27.18,0,0,1,213.59,304.75Z"/><path id="Vector_11" data-name="Vector 11" class="cls-10" d="M223.6,326.52a26.92,26.92,0,0,1-12.77,13.36,27.24,27.24,0,0,1,14.08-31.79A27.06,27.06,0,0,1,223.6,326.52Z"/></g><g id="Group_12" data-name="Group 12"><g id="Vector_12" data-name="Vector 12"><path class="cls-11" d="M106,326.52c0,3.55.07,7.11.36,10.67a182.43,182.43,0,0,0,3.27,25l.87,4.14c.58,2.47,8.71,26.42,8.49,26.63a173.38,173.38,0,0,0,61.83-93c.59-2.25,1.17-4.5,1.67-6.82a186.53,186.53,0,0,0,4.29-29.46c1.74-25.26-1.38-51.39-10.6-73.89q-3.37,2.63-6.75,5.45c-26.27,22-48,50.73-57.55,86.22a169.72,169.72,0,0,0-4.72,24.74A174.51,174.51,0,0,0,106,326.52Z"/><path class="cls-12" d="M106,326.52c0,3.55.07,7.11.36,10.67a182.43,182.43,0,0,0,3.27,25l.87,4.14c.58,2.47,8.71,26.42,8.49,26.63a173.38,173.38,0,0,0,61.83-93c.59-2.25,1.17-4.5,1.67-6.82a186.53,186.53,0,0,0,4.29-29.46c1.74-25.26-1.38-51.39-10.6-73.89q-3.37,2.63-6.75,5.45c-26.27,22-48,50.73-57.55,86.22a169.72,169.72,0,0,0-4.72,24.74A174.51,174.51,0,0,0,106,326.52Z"/></g></g><g id="Group_13" data-name="Group 13"><path id="Vector_13" data-name="Vector 13" class="cls-13" d="M107.19,306.13a173.8,173.8,0,0,0,57.92-89.92c.58-2.25,1.16-4.5,1.67-6.83,1.09-4.64,2-9.43,2.68-14.29-26.27,22-48,50.73-57.55,86.22A172.32,172.32,0,0,0,107.19,306.13Z"/></g><path id="Vector_14" data-name="Vector 14" class="cls-14" d="M285.73,198.72c0,32.37-24.53,58.56-54.79,58.56s-54.8-26.19-54.8-58.56V81.51C237.18,81.51,285.73,134,285.73,198.72Z"/><path id="Vector_15" data-name="Vector 15" class="cls-15" d="M176.21,81.51v89c0,24.6,16.91,44.48,37.81,44.48s37.81-19.95,37.81-44.48c0-47.54-31.35-86.37-71.41-88.91C179,81.58,177.59,81.51,176.21,81.51Z"/><g id="Group_14" data-name="Group 14"><path id="Vector_16" data-name="Vector 16" class="cls-16" d="M199.08,131.73a18.65,18.65,0,1,1,18.65-18.65A18.65,18.65,0,0,1,199.08,131.73Z"/><path id="Vector_17" data-name="Vector 17" class="cls-17" d="M199.08,122.81a9.73,9.73,0,1,1,9.72-9.73A9.73,9.73,0,0,1,199.08,122.81Z"/></g><path id="Vector_18" data-name="Vector 18" class="cls-15" d="M12,115.91a27.18,27.18,0,0,1,25.26,25.76,118.28,118.28,0,0,1,35.27-5.29h103.7V70.62h-86A88.42,88.42,0,0,0,61,75.49,90.48,90.48,0,0,0,12,115.91Z"/><path id="Vector_19" data-name="Vector 19" class="cls-18" d="M30.63,160.83H176.21V136.38H72.58a118.28,118.28,0,0,0-35.27,5.29v1.38A27,27,0,0,1,30.63,160.83Z"/><g id="Group_15" data-name="Group 15"><path id="Vector_20" data-name="Vector 20" class="cls-19" d="M157.05,70.62h19.16v65.76H157.05Z"/><path id="Vector_21" data-name="Vector 21" d="M157.05,136.38h19.16V160.9H157.05Z"/></g><path id="Vector_22" data-name="Vector 22" class="cls-20" d="M0,160.83A120.1,120.1,0,0,1,37.24,141.6,27.12,27.12,0,0,0,12,115.84,90.17,90.17,0,0,0,0,160.83Z"/><path id="Vector_23" data-name="Vector 23" class="cls-3" d="M0,160.83H30.56a27,27,0,0,0,6.17-12.48,26.1,26.1,0,0,0,.51-5.37V141.6A122.64,122.64,0,0,0,0,160.83Z"/><path id="Vector_24" data-name="Vector 24" class="cls-21" d="M122.44,136.38h34.61V70.62H118.3a191,191,0,0,1,4.43,25.77A190.93,190.93,0,0,1,122.44,136.38Z"/><g class="cls-22"><path id="Vector_26" data-name="Vector 26" class="cls-23" d="M197.84,118.23a6,6,0,1,1,6-6A6,6,0,0,1,197.84,118.23Z"/></g></g><g id="Group_17" data-name="Group 17"><g id="Group_18" data-name="Group 18"><path id="Vector_27" data-name="Vector 27" class="cls-2" d="M200.45,397.35a3.37,3.37,0,0,0,2.54-1.09,3.59,3.59,0,0,0,0-5.15l-24.17-24.17a3.65,3.65,0,1,0-5.15,5.16l24.17,24.16A3.67,3.67,0,0,0,200.45,397.35Z"/></g><g id="Group_19" data-name="Group 19"><path id="Vector_28" data-name="Vector 28" class="cls-2" d="M200.45,397.35a3.59,3.59,0,0,0,3.63-3.63,10.09,10.09,0,0,1,20.18,0,3.63,3.63,0,1,0,7.25,0,17.35,17.35,0,0,0-34.69,0A3.59,3.59,0,0,0,200.45,397.35Z"/></g></g></g><g id="Group_20" data-name="Group 20"><g id="Group_21" data-name="Group 21"><path id="Vector_29" data-name="Vector 29" class="cls-24" d="M42.79,402H352a5.45,5.45,0,0,0,0-10.89H42.79a5.45,5.45,0,1,0,0,10.89Z"/></g></g></g><g id="Group_22" data-name="Group 22"><path id="Vector_30" data-name="Vector 30" class="cls-2" d="M227.81,397.35a3.59,3.59,0,0,0,3.63-3.62,17.34,17.34,0,0,0-17.34-17.35,3.63,3.63,0,0,0,0,7.26,10.07,10.07,0,0,1,10.08,10.09A3.63,3.63,0,0,0,227.81,397.35Z"/></g><g id="Group_23" data-name="Group 23"><path id="Vector_31" data-name="Vector 31" class="cls-2" d="M280.35,397.36a3.59,3.59,0,0,0,3.63-3.63,17.34,17.34,0,0,0-17.34-17.35,3.63,3.63,0,0,0,0,7.26,10.07,10.07,0,0,1,10.09,10.09A3.63,3.63,0,0,0,280.35,397.36Z"/></g></g><path id="Vector_32" data-name="Vector 32" class="cls-2" d="M265.12,48.58s14.7-6,19.12-18.3S281.12,4,281.12,4,266.42,10,262,22.3,265.12,48.58,265.12,48.58Z"/><path id="Vector_33" data-name="Vector 33" class="cls-25" d="M357.61,229.27S369.49,241.8,384,241.68s26.2-12.84,26.2-12.84-11.88-12.54-26.41-12.42S357.61,229.27,357.61,229.27Z"/><path id="Vector_34" data-name="Vector 34" class="cls-26" d="M316.55,383.78s15.69,2.48,26.49-5.73,12.62-24,12.62-24-15.69-2.48-26.49,5.73S316.55,383.78,316.55,383.78Z"/><path id="Vector_35" data-name="Vector 35" class="cls-16" d="M278,406.71s-2.58,11.21,2.84,19.22,16.77,9.81,16.77,9.81,2.58-11.21-2.84-19.22S278,406.71,278,406.71Z"/><path id="Vector_36" data-name="Vector 36" class="cls-26" d="M334.35,99.05s37.95,7.76,68.6-10.22,42.39-54.9,42.39-54.9-37.95-7.76-68.6,10.22S334.35,99.05,334.35,99.05Z"/></g></svg>