<svg width="272" height="320" viewBox="0 0 272 320" fill="none" xmlns="http://www.w3.org/2000/svg">
<g id="&#208;&#161;ard">
<g id="Group 29">
<mask id="mask0" mask-type="alpha" maskUnits="userSpaceOnUse" x="0" y="0" width="272" height="320">
<path id="Rectangle 3" d="M0 50C0 22.3858 22.3858 0 50 0H222C249.614 0 272 22.3858 272 50V270C272 297.614 249.614 320 222 320H50C22.3858 320 0 297.614 0 270V50Z" fill="#C4C4C4"/>
</mask>
<g mask="url(#mask0)">
<rect id="Rectangle 3.1" x="-19" y="-23" width="304" height="360" fill="#FAA881"/>
<path id="Vector" d="M12.8499 230.393C-74.7512 252.02 -162.074 203.026 -182.328 120.985C-202.583 38.9433 -148.094 -45.0607 -60.493 -66.6876L256.717 -145C297.566 20.4601 188.052 187.139 12.8499 230.393Z" fill="#F26C74"/>
<path id="Vector_2" d="M298.197 289.365C349.267 363.753 334.134 462.732 264.467 510.56C194.8 558.388 96.9949 536.944 45.9257 462.556L-139 193.191C1.50364 96.7315 196.059 140.589 298.197 289.365Z" fill="#7675FD"/>
</g>
</g>
<path id="29 128" d="M33.904 260.384C45.776 251.909 51.712 245.171 51.712 240.168C51.712 237.107 50.3867 235.576 47.736 235.576C46.2427 235.576 45.1413 236.099 44.432 237.144C43.76 238.189 43.3867 239.813 43.312 242.016H33.96C34.184 237.2 35.64 233.579 38.328 231.152C41.016 228.725 44.4133 227.512 48.52 227.512C52.8133 227.512 56.0427 228.595 58.208 230.76C60.4107 232.925 61.512 235.744 61.512 239.216C61.512 243.061 60.0373 246.832 57.088 250.528C54.1387 254.187 50.6107 257.285 46.504 259.824H62.128V267.552H33.904V260.384ZM75.9268 255.848C76.4494 259.096 78.0921 260.72 80.8548 260.72C83.0201 260.72 84.5321 259.731 85.3908 257.752C86.2868 255.773 86.6974 252.693 86.6228 248.512C85.9881 250.043 84.8868 251.256 83.3188 252.152C81.7881 253.011 79.9961 253.44 77.9428 253.44C74.2094 253.44 71.2601 252.32 69.0948 250.08C66.9294 247.803 65.8468 244.555 65.8468 240.336C65.8468 237.685 66.3881 235.333 67.4708 233.28C68.5534 231.227 70.1401 229.64 72.2308 228.52C74.3588 227.363 76.8974 226.784 79.8468 226.784C83.8414 226.784 86.9588 227.624 89.1988 229.304C91.4388 230.984 92.9881 233.28 93.8468 236.192C94.7054 239.067 95.1348 242.539 95.1348 246.608C95.1348 253.776 94.0334 259.208 91.8308 262.904C89.6654 266.563 86.0068 268.392 80.8548 268.392C78.0174 268.392 75.5721 267.832 73.5188 266.712C71.5028 265.555 69.9348 264.024 68.8148 262.12C67.7321 260.216 67.1161 258.125 66.9668 255.848H75.9268ZM85.8948 240.784C85.8948 239.067 85.4094 237.685 84.4388 236.64C83.4681 235.557 82.0494 235.016 80.1827 235.016C78.5028 235.016 77.1774 235.483 76.2068 236.416C75.2734 237.349 74.8068 238.712 74.8068 240.504C74.8068 242.296 75.2921 243.677 76.2628 244.648C77.2334 245.581 78.5588 246.048 80.2388 246.048C81.8441 246.048 83.1881 245.6 84.2708 244.704C85.3534 243.771 85.8948 242.464 85.8948 240.784ZM109.179 237.368V228.408H125.195V268H115.115V237.368H109.179ZM130.427 260.384C142.299 251.909 148.235 245.171 148.235 240.168C148.235 237.107 146.91 235.576 144.259 235.576C142.766 235.576 141.665 236.099 140.955 237.144C140.283 238.189 139.91 239.813 139.835 242.016H130.483C130.707 237.2 132.163 233.579 134.851 231.152C137.539 228.725 140.937 227.512 145.043 227.512C149.337 227.512 152.566 228.595 154.731 230.76C156.934 232.925 158.035 235.744 158.035 239.216C158.035 243.061 156.561 246.832 153.611 250.528C150.662 254.187 147.134 257.285 143.027 259.824H158.651V267.552H130.427V260.384ZM163.994 237.312C163.994 235.408 164.536 233.616 165.618 231.936C166.701 230.256 168.306 228.893 170.434 227.848C172.6 226.803 175.213 226.28 178.274 226.28C181.373 226.28 183.986 226.803 186.114 227.848C188.28 228.893 189.885 230.256 190.93 231.936C192.013 233.616 192.554 235.408 192.554 237.312C192.554 239.403 192.069 241.195 191.098 242.688C190.128 244.144 188.709 245.264 186.842 246.048C191.285 248.027 193.506 251.368 193.506 256.072C193.506 258.76 192.834 261.075 191.49 263.016C190.146 264.92 188.317 266.376 186.002 267.384C183.725 268.355 181.149 268.84 178.274 268.84C175.437 268.84 172.861 268.355 170.546 267.384C168.232 266.376 166.402 264.92 165.058 263.016C163.714 261.075 163.042 258.76 163.042 256.072C163.042 251.368 165.264 248.027 169.706 246.048C167.84 245.264 166.421 244.144 165.45 242.688C164.48 241.195 163.994 239.403 163.994 237.312ZM173.402 238.936C173.402 240.467 173.832 241.643 174.69 242.464C175.586 243.248 176.781 243.64 178.274 243.64C179.768 243.64 180.944 243.248 181.802 242.464C182.698 241.643 183.146 240.467 183.146 238.936C183.146 237.443 182.698 236.267 181.802 235.408C180.906 234.549 179.73 234.12 178.274 234.12C176.818 234.12 175.642 234.549 174.746 235.408C173.85 236.267 173.402 237.443 173.402 238.936ZM172.338 255.512C172.338 257.192 172.861 258.517 173.906 259.488C174.989 260.459 176.445 260.944 178.274 260.944C180.104 260.944 181.541 260.459 182.586 259.488C183.669 258.517 184.21 257.192 184.21 255.512C184.21 253.832 183.65 252.525 182.53 251.592C181.448 250.621 180.029 250.136 178.274 250.136C176.52 250.136 175.082 250.621 173.962 251.592C172.88 252.525 172.338 253.832 172.338 255.512Z" fill="white"/>
<path id="Members" d="M33.24 201H36.66V192.56L39.82 201H42.58L45.72 192.58V201H49.14V186.96H45.12L41.22 196.68L37.28 186.96H33.24V201ZM56.5194 192.42C57.6594 192.42 58.6194 193.12 58.6194 194.34H54.3394C54.5394 193.1 55.3994 192.42 56.5194 192.42ZM61.8594 197.3H58.2194C57.9394 197.9 57.3994 198.38 56.4394 198.38C55.3394 198.38 54.4394 197.7 54.3194 196.24H62.0594C62.0994 195.9 62.1194 195.56 62.1194 195.24C62.1194 191.84 59.8194 189.68 56.5594 189.68C53.2394 189.68 50.9194 191.88 50.9194 195.42C50.9194 198.96 53.2794 201.16 56.5594 201.16C59.3394 201.16 61.3194 199.48 61.8594 197.3ZM79.3036 201H82.7036V194.48C82.7036 191.48 80.9236 189.72 78.1636 189.72C76.5436 189.72 75.1436 190.62 74.4036 191.8C73.6436 190.46 72.2836 189.72 70.6036 189.72C69.1436 189.72 68.0036 190.34 67.3436 191.24V189.84H63.9236V201H67.3436V194.94C67.3436 193.48 68.1836 192.68 69.4836 192.68C70.7836 192.68 71.6236 193.48 71.6236 194.94V201H75.0236V194.94C75.0236 193.48 75.8636 192.68 77.1636 192.68C78.4636 192.68 79.3036 193.48 79.3036 194.94V201ZM88.5155 191.42V186.2H85.0955V201H88.5155V199.44C89.1355 200.42 90.3155 201.16 91.9555 201.16C94.6955 201.16 96.8755 198.92 96.8755 195.4C96.8755 191.88 94.7155 189.68 91.9555 189.68C90.3555 189.68 89.1355 190.42 88.5155 191.42ZM93.3955 195.4C93.3955 197.18 92.2355 198.18 90.9355 198.18C89.6555 198.18 88.4955 197.2 88.4955 195.42C88.4955 193.64 89.6555 192.66 90.9355 192.66C92.2355 192.66 93.3955 193.62 93.3955 195.4ZM103.59 192.42C104.73 192.42 105.69 193.12 105.69 194.34H101.41C101.61 193.1 102.47 192.42 103.59 192.42ZM108.93 197.3H105.29C105.01 197.9 104.47 198.38 103.51 198.38C102.41 198.38 101.51 197.7 101.39 196.24H109.13C109.17 195.9 109.19 195.56 109.19 195.24C109.19 191.84 106.89 189.68 103.63 189.68C100.31 189.68 97.9897 191.88 97.9897 195.42C97.9897 198.96 100.35 201.16 103.63 201.16C106.41 201.16 108.39 199.48 108.93 197.3ZM114.414 195.82C114.414 193.9 115.354 193.34 116.974 193.34H117.914V189.72C116.414 189.72 115.194 190.52 114.414 191.7V189.84H110.994V201H114.414V195.82ZM128.609 197.76C128.549 193.6 122.509 194.86 122.509 193.08C122.509 192.54 122.949 192.22 123.749 192.22C124.709 192.22 125.289 192.72 125.389 193.48H128.549C128.329 191.28 126.729 189.68 123.849 189.68C120.929 189.68 119.309 191.24 119.309 193.14C119.309 197.24 125.389 195.94 125.389 197.74C125.389 198.24 124.929 198.64 124.049 198.64C123.109 198.64 122.409 198.12 122.329 197.34H118.949C119.109 199.5 121.109 201.16 124.089 201.16C126.889 201.16 128.609 199.7 128.609 197.76Z" fill="white"/>
<path id="Icon" d="M78.0001 57.2532C75.1808 44.8408 72.2699 32 54.2209 32C41.9689 32 32 42.0492 32 54.4V88H65.3314V79.6H68.109C71.1727 79.6 73.6643 77.0884 73.6643 74V65.6H80C80 65.6 78.3612 58.8576 78.0001 57.2532ZM54.2209 65.5664C54.2209 65.5664 43.1105 57.424 43.1105 51.3872C43.1105 45.6556 51.7516 43.1636 54.2209 50.6928C56.6902 43.1664 65.3314 45.6556 65.3314 51.3872C65.3314 57.424 54.2209 65.5664 54.2209 65.5664Z" fill="white"/>
</g>
</svg>
